<?xml version="1.0" encoding="UTF-8"?>
<level>
  <owner>Fistachka</owner>
  <repo>babki</repo>
  <version>v1.0.8</version>
  <next number="1" owner="Fistachka" repo="fiksikitri"/>
  <readme>
    <ru>25b4557ae72ae86b2850ed0dd6305f27dd9b019748fd5723f7b9b7b62d4c47f3</ru>
    <en>cd6f3688ea6878472623cda7d8e3f590d236913a684219274b85a0435f652984</en>
  </readme>
  <license>b1b99f5538d1fd3702219bff50c665196dfa42f6ee755c37fe41a6178d6bc6e5</license>
  <exercise number="1">
    <scale>major</scale>
    <bpm>147</bpm>
    <lowestNote>18</lowestNote>
    <tonalities>1</tonalities>
    <video name="1t.mp4" size="2843017" type="video/mp4" volume="1">3b7fd346236074853cc93ee5bc58e19b25f82501111d1004f273c80ee257b59e</video>
    <notes>
      <note number="1" values="188" ticks="824" durationTicks="78" ppq="96" velocity="0.799"/>
      <note number="2" values="188" ticks="919" durationTicks="79" ppq="96" velocity="0.884"/>
      <note number="3" values="188" ticks="1014" durationTicks="117" ppq="96" velocity="0.787"/>
      <note number="4" values="58" ticks="1135" durationTicks="46" ppq="96" velocity="0.847"/>
      <note number="5" values="48" ticks="1183" durationTicks="92" ppq="96" velocity="0.742"/>
      <note number="6" values="28" ticks="1279" durationTicks="95" ppq="96" velocity="0.872"/>
      <note number="7" values="38" ticks="1374" durationTicks="97" ppq="96" velocity="0.774"/>
      <note number="8" values="18" ticks="1471" durationTicks="95" ppq="96" velocity="0.774"/>
    </notes>
  </exercise>
  <exercise number="2">
    <scale>major</scale>
    <bpm>147</bpm>
    <lowestNote>18</lowestNote>
    <tonalities>1</tonalities>
    <video name="2t.mp4" size="1546896" type="video/mp4" volume="1">a7a36e67196e088ce8f7a34c0ec0cfc93570e8a6ff1bf1205e665141bfe7a514</video>
    <notes>
      <note number="1" values="78" ticks="97" durationTicks="449" ppq="192" velocity="0.782"/>
      <note number="2" values="78" ticks="576" durationTicks="94" ppq="192" velocity="0.867"/>
      <note number="3" values="68" ticks="675" durationTicks="86" ppq="192" velocity="0.777"/>
      <note number="4" values="78" ticks="770" durationTicks="92" ppq="192" velocity="0.839"/>
      <note number="5" values="188" ticks="866" durationTicks="186" ppq="192" velocity="0.767"/>
      <note number="6" values="58" ticks="1058" durationTicks="168" ppq="192" velocity="0.904"/>
      <note number="7" values="58" ticks="1252" durationTicks="296" ppq="192" velocity="0.904"/>
    </notes>
  </exercise>
  <exercise number="3">
    <scale>chromaticmajor</scale>
    <bpm>147</bpm>
    <lowestNote>18</lowestNote>
    <tonalities>1</tonalities>
    <video name="3t.mp4" size="1695651" type="video/mp4" volume="1">d7e6e9fba668f87049f1f51531c6327214bd0b09e2d7da64bad9dbcbe9c90108</video>
    <notes>
      <note number="1" values="188" ticks="53" durationTicks="132" ppq="96" velocity="0.884"/>
      <note number="2" values="188" ticks="199" durationTicks="46" ppq="96" velocity="0.913"/>
      <note number="3" values="978" ticks="244" durationTicks="95" ppq="96" velocity="0.792"/>
      <note number="4" values="968" ticks="342" durationTicks="92" ppq="96" velocity="0.832"/>
      <note number="5" values="58" ticks="437" durationTicks="93" ppq="96" velocity="0.782"/>
      <note number="6" values="58" ticks="533" durationTicks="93" ppq="96" velocity="0.857"/>
      <note number="7" values="968" ticks="628" durationTicks="94" ppq="96" velocity="0.752"/>
      <note number="8" values="978" ticks="725" durationTicks="71" ppq="96" velocity="0.752"/>
    </notes>
  </exercise>
  <exercise number="4">
    <scale>major</scale>
    <bpm>147</bpm>
    <lowestNote>58</lowestNote>
    <tonalities>1</tonalities>
    <video name="4t.mp4" size="1608274" type="video/mp4" volume="1">b8c9120a6301f577f281ff83574385b07abf8e0c400207677e5b4ceb572f467c</video>
    <notes>
      <note number="1" values="288" ticks="49" durationTicks="240" ppq="96" velocity="0.779"/>
      <note number="2" values="188" ticks="289" durationTicks="48" ppq="96" velocity="0.864"/>
      <note number="3" values="78" ticks="337" durationTicks="48" ppq="96" velocity="0.699"/>
      <note number="4" values="68" ticks="385" durationTicks="45" ppq="96" velocity="0.774"/>
      <note number="5" values="588" ticks="434" durationTicks="80" ppq="96" velocity="0.727"/>
      <note number="6" values="588" ticks="529" durationTicks="83" ppq="96" velocity="0.819"/>
      <note number="7" values="588" ticks="625" durationTicks="191" ppq="96" velocity="0.819"/>
    </notes>
  </exercise>
  <exercise number="5">
    <scale>major</scale>
    <bpm>147</bpm>
    <lowestNote>18</lowestNote>
    <tonalities>1</tonalities>
    <video name="5t.mp4" size="596757" type="video/mp4" volume="1">70f4272c737279656cb462ce5b5f936275c5f0ac79e6542c3b4bb78d969b4c97</video>
    <notes>
      <note number="1" values="38" ticks="24" durationTicks="37" ppq="96" velocity="0.843"/>
      <note number="2" values="38" ticks="73" durationTicks="45" ppq="96" velocity="0.913"/>
      <note number="3" values="58" ticks="119" durationTicks="39" ppq="96" velocity="0.874"/>
      <note number="4" values="58" ticks="168" durationTicks="46" ppq="96" velocity="0.921"/>
      <note number="5" values="68" ticks="217" durationTicks="37" ppq="96" velocity="0.921"/>
      <note number="6" values="68" ticks="265" durationTicks="47" ppq="96" velocity="0.921"/>
      <note number="7" values="58" ticks="313" durationTicks="48" ppq="96" velocity="0.921"/>
    </notes>
  </exercise>
  <exercise number="6">
    <scale>major</scale>
    <bpm>147</bpm>
    <lowestNote>18</lowestNote>
    <tonalities>1</tonalities>
    <video name="6t.mp4" size="588868" type="video/mp4" volume="1">8ee3f73d334027fb88fb217d31028c35df3f26c41a9470feee1adb1a7b09a920</video>
    <notes>
      <note number="1" values="38" ticks="24" durationTicks="37" ppq="96" velocity="0.843"/>
      <note number="2" values="38" ticks="73" durationTicks="45" ppq="96" velocity="0.906"/>
      <note number="3" values="58" ticks="119" durationTicks="39" ppq="96" velocity="0.866"/>
      <note number="4" values="58" ticks="168" durationTicks="46" ppq="96" velocity="0.913"/>
      <note number="5" values="68" ticks="217" durationTicks="37" ppq="96" velocity="0.913"/>
      <note number="6" values="68" ticks="265" durationTicks="47" ppq="96" velocity="0.913"/>
      <note number="7" values="58" ticks="313" durationTicks="48" ppq="96" velocity="0.913"/>
    </notes>
  </exercise>
  <exercise number="7">
    <scale>chromaticmajor</scale>
    <bpm>147</bpm>
    <lowestNote>18</lowestNote>
    <tonalities>1</tonalities>
    <video name="7t.mp4" size="889062" type="video/mp4" volume="1">5695824008442b7f48a78de01481b5f6847bee99c44bbcf873a72e29bf912f71</video>
    <notes>
      <note number="1" values="188" ticks="23" durationTicks="65" ppq="96" velocity="0.843"/>
      <note number="2" values="188" ticks="98" durationTicks="45" ppq="96" velocity="0.913"/>
      <note number="3" values="978" ticks="143" durationTicks="40" ppq="96" velocity="0.874"/>
      <note number="4" values="978" ticks="191" durationTicks="48" ppq="96" velocity="0.921"/>
      <note number="5" values="68" ticks="240" durationTicks="40" ppq="96" velocity="0.921"/>
      <note number="6" values="68" ticks="290" durationTicks="45" ppq="96" velocity="0.921"/>
      <note number="7" values="188" ticks="337" durationTicks="93" ppq="96" velocity="0.921"/>
    </notes>
  </exercise>
  <exercise number="8">
    <scale>major</scale>
    <bpm>147</bpm>
    <lowestNote>18</lowestNote>
    <tonalities>1</tonalities>
    <video name="8t.mp4" size="1402383" type="video/mp4" volume="1">a14b14fcdca20b4910dd340d511eb36179918aef6aceffdee5b7c26040f489e2</video>
    <notes>
      <note number="1" values="78" ticks="46" durationTicks="65" ppq="96" velocity="0.843"/>
      <note number="2" values="78" ticks="148" durationTicks="45" ppq="96" velocity="0.906"/>
      <note number="3" values="68" ticks="193" durationTicks="40" ppq="96" velocity="0.866"/>
      <note number="4" values="78" ticks="241" durationTicks="48" ppq="96" velocity="0.913"/>
      <note number="5" values="188" ticks="290" durationTicks="40" ppq="96" velocity="0.913"/>
      <note number="6" values="188" ticks="340" durationTicks="45" ppq="96" velocity="0.913"/>
      <note number="7" values="188" ticks="387" durationTicks="93" ppq="96" velocity="0.913"/>
    </notes>
  </exercise>
</level>
